<svg id="svg" xmlns="http://www.w3.org/2000/svg" xmlns:xlink="http://www.w3.org/1999/xlink" width="400" height="126" viewBox="0, 0, 400,126"><g id="svgg"><path id="path0" d="M41.154 20.173 C 31.063 25.582,28.000 28.768,28.000 33.857 C 28.000 39.537,33.853 39.141,39.607 33.072 C 48.499 23.695,76.698 23.481,88.782 32.698 C 96.636 38.689,99.105 39.216,100.635 35.230 C 106.215 20.689,61.371 9.338,41.154 20.173 M50.153 53.178 C 40.246 61.514,42.764 75.320,55.369 81.766 C 61.906 85.109,84.000 84.707,84.000 81.245 C 84.000 76.735,78.031 73.147,71.371 73.654 C 63.119 74.283,54.000 70.348,54.000 66.157 C 54.000 60.462,58.388 58.000,68.543 58.000 C 77.949 58.000,84.000 54.924,84.000 50.143 C 84.000 45.189,56.743 47.633,50.153 53.178 M105.035 52.463 C 91.484 64.118,102.312 84.000,122.210 84.000 C 128.902 84.000,131.918 83.098,132.786 80.836 C 135.074 74.873,133.984 74.000,124.245 74.000 C 105.452 74.000,103.444 59.687,122.000 58.000 C 131.333 57.152,133.000 56.394,133.000 53.000 C 133.000 46.516,112.408 46.120,105.035 52.463 M153.742 51.760 C 140.464 62.240,149.348 84.008,166.899 83.998 C 179.760 83.990,188.542 62.256,179.384 53.098 C 173.731 47.445,160.110 46.734,153.742 51.760 M196.000 49.234 C 196.000 53.822,205.084 75.666,208.587 79.500 C 215.681 87.266,220.332 84.334,226.830 68.000 C 228.799 63.050,231.218 57.437,232.205 55.527 C 235.218 49.696,234.244 47.705,228.702 48.367 C 223.065 49.040,221.942 50.483,217.423 62.866 L 214.552 70.731 210.513 59.866 C 206.904 50.158,196.000 42.170,196.000 49.234 M258.501 49.648 C 255.588 51.498,246.000 75.067,246.000 80.379 C 246.000 91.421,256.648 81.553,260.976 66.500 C 262.343 61.744,266.000 60.273,266.000 64.479 C 266.000 71.776,273.195 83.985,277.500 83.993 C 282.930 84.002,283.062 81.863,278.445 68.751 C 272.015 50.494,266.097 44.825,258.501 49.648 M299.898 54.109 C 287.354 67.538,297.694 84.000,318.674 84.000 C 326.084 84.000,327.970 83.245,329.048 79.849 C 330.833 74.224,329.251 73.144,320.022 73.689 C 310.081 74.275,302.700 68.166,305.969 62.058 C 307.523 59.155,310.609 58.059,318.515 57.604 C 327.465 57.088,329.000 56.415,329.000 53.000 C 329.000 45.340,307.318 46.166,299.898 54.109 M347.500 50.160 C 337.634 55.907,344.666 70.000,357.400 70.000 C 362.130 70.000,366.000 70.900,366.000 72.000 C 366.000 73.100,361.050 74.000,355.000 74.000 C 344.600 74.000,344.000 74.273,344.000 79.000 C 344.000 83.808,344.487 84.000,356.690 84.000 C 381.987 84.000,384.942 62.022,360.000 59.381 C 355.373 58.891,356.826 58.532,364.286 58.320 C 375.383 58.005,378.470 56.036,376.539 50.500 C 375.467 47.428,352.650 47.161,347.500 50.160 M172.130 62.244 C 173.997 65.732,173.697 67.192,170.444 70.444 C 165.374 75.515,158.000 72.346,158.000 65.096 C 158.000 57.373,168.400 55.274,172.130 62.244 M61.333 61.333 C 56.529 66.137,60.297 70.000,69.786 70.000 C 79.442 70.000,82.428 67.917,80.539 62.500 C 79.628 59.890,63.742 58.925,61.333 61.333 M28.619 95.272 C 25.704 102.869,42.747 113.890,59.970 115.545 C 79.638 117.435,107.495 102.918,99.643 94.870 C 96.502 91.651,96.070 91.645,92.934 94.780 C 78.553 109.162,47.917 109.359,36.121 95.146 C 32.770 91.108,30.200 91.151,28.619 95.272 " stroke="none" fill="#000000" fill-rule="evenodd"></path></g></svg>