<svg xmlns="http://www.w3.org/2000/svg" viewBox="0 0 960 960"><path d="M120.652,398.191a390.1,390.1,0,0,0,718.7,303.618,389.671,389.671,0,0,0-83.577-427.58Q742.991,261.448,729.216,250H780a10,10,0,0,0,0-20H703.012c-4.31-3.01-8.666-5.952-13.094-8.782A9.991,9.991,0,0,0,690,220V140a10,10,0,0,0-20,0v69.339a389.432,389.432,0,0,0-380,0V140a10,10,0,0,0-20,0v80a9.991,9.991,0,0,0,.082,1.218c-4.428,2.83-8.784,5.772-13.094,8.782H180a10,10,0,0,0,0,20h50.784q-13.758,11.459-26.555,24.229A388.668,388.668,0,0,0,120.652,398.191Zm215.33-189.119a371.349,371.349,0,1,1-117.611,79.3A367.676,367.676,0,0,1,335.982,209.072ZM480,720a70,70,0,1,0,70,70A70.079,70.079,0,0,0,480,720Zm0,120a50,50,0,1,1,50-50A50.057,50.057,0,0,1,480,840ZM293.977,798a9.99,9.99,0,0,0,6.006,2H380a10,10,0,0,0,10-10,90,90,0,0,1,180,0,10,10,0,0,0,10,10h80.018a9.995,9.995,0,0,0,6.006-2,312.827,312.827,0,0,0,90.21-107.169A310.033,310.033,0,0,0,260.8,330.8a310.2,310.2,0,0,0-57.031,360.029A312.83,312.83,0,0,0,293.977,798ZM274.939,344.939A290.05,290.05,0,0,1,738.424,681.728,292.756,292.756,0,0,1,656.648,780h-67.1a110,110,0,0,0-219.1,0h-67.1a292.747,292.747,0,0,1-81.777-98.272,290.2,290.2,0,0,1,53.363-336.789ZM480,430a40.045,40.045,0,0,0,40-40V340a40,40,0,0,0-80,0v50A40.045,40.045,0,0,0,480,430Zm-20-90a20,20,0,0,1,40,0v50a20,20,0,0,1-40,0Z"/></svg>