<?xml version="1.0" standalone="no"?>
<!DOCTYPE svg PUBLIC "-//W3C//DTD SVG 20010904//EN"
 "http://www.w3.org/TR/2001/REC-SVG-20010904/DTD/svg10.dtd">
<svg version="1.0" xmlns="http://www.w3.org/2000/svg"
 width="2300.000000pt" height="894.000000pt" viewBox="0 0 2300.000000 894.000000"
 preserveAspectRatio="xMidYMid meet">
<metadata>
Created by potrace 1.16, written by Peter Selinger 2001-2019
</metadata>
<g transform="translate(0.000000,894.000000) scale(0.100000,-0.100000)"
fill="#000000" stroke="none">
<path d="M18824 7016 c-3 -8 -4 -31 -2 -52 l3 -39 143 -3 142 -3 0 -399 0
-400 70 0 70 0 0 400 0 400 146 0 145 0 -3 53 -3 52 -353 3 c-296 2 -353 0
-358 -12z"/>
<path d="M19740 6575 l0 -456 68 3 67 3 3 373 c2 288 5 372 15 372 7 0 76
-164 158 -373 l145 -372 41 -3 40 -3 60 153 c33 84 100 255 149 381 51 132 94
227 101 227 10 0 13 -78 13 -380 l0 -381 68 3 67 3 0 450 0 450 -106 3 -107 3
-59 -153 c-33 -84 -93 -240 -134 -346 -54 -140 -78 -192 -89 -190 -9 2 -63
126 -145 333 -71 182 -134 336 -138 343 -6 8 -40 12 -113 12 l-104 0 0 -455z"/>
<path d="M3725 6025 c-451 -74 -793 -321 -980 -710 -176 -366 -201 -896 -64
-1307 157 -469 516 -772 1024 -865 139 -26 399 -23 543 5 274 55 505 173 682
351 147 147 241 301 309 507 101 300 117 669 45 993 -62 275 -171 480 -353
662 -181 181 -389 292 -659 350 -129 27 -417 35 -547 14z m430 -608 c277 -77
421 -299 456 -702 14 -166 0 -359 -36 -501 -66 -254 -210 -412 -425 -470 -80
-21 -269 -24 -355 -5 -262 57 -425 268 -475 616 -14 103 -12 366 5 475 52 347
221 550 500 600 67 12 268 4 330 -13z"/>
<path d="M7250 6023 c-129 -13 -294 -70 -422 -144 -84 -49 -207 -146 -245
-193 -49 -62 -53 -53 -53 124 l0 160 -340 0 -340 0 0 -1385 0 -1385 363 2 362
3 5 936 5 936 29 42 c97 140 372 231 696 231 l80 0 0 334 0 334 -22 6 c-23 6
-55 6 -118 -1z"/>
<path d="M8738 6019 c-275 -27 -531 -120 -719 -261 -73 -55 -228 -210 -248
-247 -9 -15 20 -35 216 -147 124 -71 230 -131 236 -133 5 -2 41 28 81 66 155
153 317 223 543 239 242 16 420 -51 484 -184 20 -40 24 -67 27 -174 4 -102 2
-129 -9 -132 -8 -2 -90 -14 -184 -26 -93 -12 -242 -37 -331 -55 -831 -170
-1224 -489 -1224 -995 0 -389 219 -679 585 -776 98 -26 391 -26 520 -1 190 37
370 104 532 198 47 27 91 49 98 49 6 0 19 -33 30 -72 10 -40 24 -94 32 -120
l14 -48 315 0 315 0 -3 1083 -3 1082 -27 80 c-80 234 -255 401 -519 493 -219
77 -498 106 -761 81z m602 -1736 l0 -338 -58 -46 c-136 -108 -282 -185 -417
-220 -97 -25 -259 -30 -326 -11 -145 43 -244 216 -225 397 26 252 224 400 666
499 117 26 283 53 333 55 l27 1 0 -337z"/>
<path d="M12071 6015 c-186 -33 -387 -123 -614 -275 -75 -49 -139 -90 -144
-90 -4 0 -23 73 -42 163 l-33 163 -162 -22 c-88 -13 -221 -31 -293 -40 l-133
-17 0 -1349 0 -1348 353 2 352 3 5 1003 5 1002 99 75 c116 86 269 165 381 197
107 30 285 32 364 4 87 -30 149 -107 183 -228 9 -32 13 -307 17 -1048 l6
-1005 358 -3 357 -2 0 1002 c0 622 -4 1037 -10 1093 -45 387 -232 619 -570
705 -112 29 -357 36 -479 15z"/>
<path d="M14595 6016 c-277 -54 -519 -219 -684 -466 -166 -248 -247 -530 -258
-891 -15 -509 108 -893 372 -1154 304 -301 833 -393 1189 -207 84 44 196 151
250 240 64 102 66 96 66 -178 0 -274 -11 -352 -64 -465 -57 -123 -164 -204
-311 -236 -77 -18 -340 -17 -420 0 -151 33 -247 98 -281 189 -10 26 -20 50
-24 55 -5 6 -689 -98 -698 -107 -8 -9 43 -138 80 -201 201 -342 677 -516 1273
-465 587 51 936 268 1071 667 72 214 68 125 72 1736 l3 1447 -303 -2 -303 -3
-18 -100 c-32 -183 -38 -205 -51 -205 -8 0 -19 14 -27 32 -18 43 -112 137
-182 182 -77 49 -193 95 -302 118 -120 25 -355 32 -450 14z m447 -500 c240
-43 410 -235 475 -536 23 -106 25 -446 4 -585 -50 -330 -184 -523 -409 -587
-89 -26 -262 -28 -352 -4 -272 71 -400 348 -400 865 0 346 66 569 209 712 126
126 279 169 473 135z"/>
<path d="M17745 6015 c-192 -31 -376 -101 -517 -196 -132 -89 -268 -241 -355
-399 -171 -307 -231 -818 -147 -1245 96 -484 391 -831 817 -959 259 -78 562
-85 857 -19 274 60 482 173 656 354 66 69 152 185 143 192 -15 13 -500 277
-506 277 -5 0 -26 -23 -47 -50 -68 -88 -173 -177 -260 -220 -99 -48 -203 -70
-336 -70 -328 0 -527 144 -614 442 -24 85 -46 235 -46 323 l0 45 924 0 924 0
6 31 c9 47 7 169 -5 299 -59 649 -390 1062 -947 1180 -130 28 -418 36 -547 15z
m403 -480 c233 -55 392 -265 392 -518 l0 -67 -571 0 -570 0 7 58 c9 80 50 217
82 276 65 120 192 219 318 250 79 19 263 20 342 1z"/>
</g>
</svg>
